
<svg xmlns="http://www.w3.org/2000/svg" width="2062.5635pt" height="375pt" viewBox="0 0 2062.5635 375" version="1.1" id="svg751">
  
  <defs id="defs755"></defs>
  
  <g id="g1252" transform="scale(1.25)">
    <g id="g1193">
      <path style="fill:#0059a8;fill-opacity:1;fill-rule:nonzero;stroke:none;stroke-width:4.32579" d="M 173.50459,55.153776 H 57.7222 l 40.283893,72.287944 c 6.522457,9.81749 14.616437,13.90671 29.368017,13.90671 h 27.72897 L 131.44644,96.434615 h 36.65092 c 29.97631,0 52.87256,16.069605 57.92495,44.913815 h 51.48702 C 270.32784,92.328496 225.05917,55.153776 173.50459,55.153776" id="path2"></path>
      <path style="fill:#00bdf0;fill-opacity:1;fill-rule:nonzero;stroke:none;stroke-width:4.32579" d="m 226.02231,156.45489 c -5.05239,28.8273 -27.94864,44.91382 -57.92495,44.91382 h -36.65092 l 23.65664,-44.91382 h -27.72897 c -14.75158,0 -22.84556,4.08922 -29.368017,13.90671 L 57.7222,242.64955 h 115.78239 c 51.55458,0 96.82325,-37.17472 104.00474,-86.19466 h -51.48702" id="path4"></path>
      <path style="fill:#0059a8;fill-opacity:1;fill-rule:nonzero;stroke:none;stroke-width:4.32579" d="m 315.44444,82.561696 c -18.48599,0 -30.28051,9.378133 -30.28051,26.478524 0,0.0347 0.0173,3.92024 0.0173,3.92024 0,0 60.88206,0 62.11559,0 0,1.57148 0,1.23354 0,106.69145 h 45.03208 c 0,0 0,-105.45791 0,-106.69145 1.23355,0 62.25079,0 62.25079,0 V 82.561696 H 315.44486" id="path6"></path>
      <path style="fill:#0059a8;fill-opacity:1;fill-rule:nonzero;stroke:none;stroke-width:4.32579" d="m 786.21158,82.561696 h -92.95369 c -21.42615,0 -38.81381,17.370706 -38.81381,38.813764 v 59.46267 c 0,21.44306 17.37076,38.81378 38.81381,38.81378 h 92.93683 c 21.44304,0 38.83066,-17.37072 38.83066,-38.81378 v -59.46267 c 0,-21.443058 -17.38762,-38.813764 -38.8138,-38.813764 z m -77.17133,30.398764 c 2.17977,0 59.22607,0 61.40588,0 5.27205,0 9.56405,4.292 9.56405,9.58093 0,14.65022 0,42.4806 0,57.14769 0,5.27205 -4.292,9.56405 -9.56405,9.56405 -7.84049,0 -53.56539,0 -61.40588,0 -5.27205,0 -9.56405,-4.292 -9.56405,-9.56405 0,-14.66709 0,-42.49747 0,-57.14769 0,-5.28893 4.292,-9.58093 9.56405,-9.58093" id="path8"></path>
      <path style="fill:#0059a8;fill-opacity:1;fill-rule:nonzero;stroke:none;stroke-width:4.32579" d="m 597.09364,175.97163 c 1.85874,0 5.13686,0 5.13686,0 10.03716,0 18.46907,-3.10916 24.36634,-9.00646 6.35349,-6.3535 9.71614,-15.71476 9.71614,-27.05304 0,0 0,-8.04327 0,-18.53667 0,-21.443058 -17.38762,-38.813764 -38.83068,-38.813764 h -92.59885 c -21.45996,0 -38.83072,17.370706 -38.83072,38.813764 v 98.27645 h 44.82933 c 0,0 0,-105.45791 0,-106.69145 1.21663,0 60.20616,0 60.20616,0 8.21224,0 13.46738,1.43629 16.55967,4.54545 2.43325,2.41635 3.61609,6.04935 3.61609,11.10175 v 4.41026 c 0,5.32275 -1.11526,8.92193 -3.53161,11.35519 -2.90641,2.92328 -7.89119,4.25817 -15.66405,4.25817 h -40.95979 c -3.53161,0 -6.35351,0.45624 -7.04632,1.82496 -0.65899,1.30111 0.94627,3.75128 3.59919,6.3028 l 65.4782,62.89287 h 50.91246 c 0,0 -44.76176,-41.60191 -46.95842,-43.68028" id="path10"></path>
      <path style="fill:#0059a8;fill-opacity:1;fill-rule:nonzero;stroke:none;stroke-width:4.32579" d="m 908.7023,186.98884 h -8.02636 v 27.17135 h 8.02636 c 8.93882,0 14.46435,-4.69755 14.46435,-13.82223 0,-8.34743 -6.40419,-13.34912 -14.46435,-13.34912 z m -0.0675,23.75804 h -4.0723 v -20.32781 h 4.54546 c 5.62689,0 9.93576,3.73436 9.93576,10.08785 0,7.01249 -3.70058,10.23996 -10.40892,10.23996" id="path12"></path>
      <path style="fill:#0059a8;fill-opacity:1;fill-rule:nonzero;stroke:none;stroke-width:4.32579" d="m 943.13963,202.06152 c 0,-5.40723 -2.29808,-8.21224 -7.97566,-8.21224 -2.53466,0 -4.71447,0.77731 -6.5563,1.87561 l 0.20288,3.10916 c 1.48699,-1.25041 3.70054,-2.0277 5.76207,-2.0277 3.66676,0 4.91721,1.74048 4.91721,5.18756 -1.4532,-0.0844 -2.46708,-0.0844 -3.90337,-0.0844 -3.76815,0 -9.22608,1.55456 -9.22608,6.53937 0,4.32579 3.00776,6.18453 7.28285,6.18453 3.34574,0 5.28896,-1.82496 6.15075,-3.02466 h 0.0844 v 2.55152 h 3.43023 c -0.0675,-0.57451 -0.16915,-1.62218 -0.16915,-3.88647 z m -3.64988,4.39336 c 0,2.97397 -1.90945,5.22136 -5.52554,5.22136 -1.67287,0 -3.71746,-1.13215 -3.71746,-3.22743 0,-3.49784 4.91722,-3.81885 6.89423,-3.81885 0.79416,0 1.57147,0.0844 2.34877,0.0844 v 1.74043" id="path14"></path>
      <path style="fill:#0059a8;fill-opacity:1;fill-rule:nonzero;stroke:none;stroke-width:4.32579" d="m 956.33665,193.84928 c -5.61003,0 -9.2937,4.15683 -9.2937,10.03716 0,6.47177 3.22743,10.74691 10.27375,10.74691 3.26125,0 4.86651,-0.77731 6.26901,-1.26734 v -3.6668 c -0.87869,0.72662 -3.70057,1.97703 -6.11692,1.97703 -3.46404,0 -6.53937,-2.68671 -6.53937,-6.62387 h 14.17707 c 0,-6.38728 -2.14598,-11.20309 -8.76984,-11.20309 z m -5.40723,8.48261 c 0.27036,-2.55157 1.74044,-5.52554 5.33961,-5.52554 3.15987,0 4.93412,2.50086 4.93412,5.52554 h -10.27373" id="path16"></path>
      <path style="fill:#0059a8;fill-opacity:1;fill-rule:nonzero;stroke:none;stroke-width:4.32579" d="m 983.20381,197.26259 h -0.0675 c -1.09836,-2.12911 -3.0416,-3.41331 -6.55629,-3.41331 -5.98175,0 -8.87124,5.45793 -8.87124,10.56097 0,5.12 2.80501,9.74994 8.49952,9.74994 2.51773,0 5.10304,-1.01384 6.64073,-3.05847 h 0.0844 v 1.94324 c 0,4.20747 -2.29807,6.80973 -6.15071,6.80973 -2.68669,0 -4.35956,-0.49002 -7.16457,-1.79117 l -0.37159,3.41335 c 3.17678,1.06453 5.0186,1.33489 7.09702,1.33489 7.14766,0 10.25682,-3.44709 10.25682,-9.49644 v -18.99293 h -3.39644 z m -6.04931,13.9574 c -3.44713,0 -5.54241,-3.27812 -5.54241,-7.01248 0,-3.39644 1.82492,-7.40116 5.54241,-7.40116 3.86953,0 5.77895,3.53161 5.77895,7.67152 0,3.70057 -2.36566,6.74212 -5.77895,6.74212" id="path18"></path>
      <path style="fill:#0059a8;fill-opacity:1;fill-rule:nonzero;stroke:none;stroke-width:4.32579" d="m 1005.7452,203.51468 c 0,4.81581 -1.8587,8.16156 -6.03242,8.16156 -3.17673,-0.18601 -4.20752,-2.45013 -4.20752,-7.08011 v -10.27374 h -3.64988 v 11.77765 c 0,5.35653 2.29807,8.53331 7.41807,8.53331 2.78815,0 5.44105,-1.36874 6.50555,-3.61611 h 0.084 v 3.14295 h 3.5485 v -19.8378 h -3.6668 v 9.19229" id="path20"></path>
      <path style="fill:#0059a8;fill-opacity:1;fill-rule:nonzero;stroke:none;stroke-width:4.32579" d="m 1039.8615,209.58095 -8.5333,-22.59211 h -6.4211 v 27.17135 h 3.9033 v -23.50455 h 0.067 l 9.0064,23.50455 h 3.802 l 9.0064,-23.50455 h 0.051 v 23.50455 h 3.9033 v -27.17135 h -6.4211 l -8.3643,22.59211" id="path22"></path>
      <path style="fill:#0059a8;fill-opacity:1;fill-rule:nonzero;stroke:none;stroke-width:4.32579" d="m 1068.2832,193.84928 c -5.61,0 -9.2936,4.15683 -9.2936,10.03716 0,6.47177 3.2105,10.74691 10.2737,10.74691 3.2612,0 4.8665,-0.77731 6.269,-1.26734 v -3.6668 c -0.8956,0.72662 -3.7175,1.97703 -6.1169,1.97703 -3.464,0 -6.5563,-2.68671 -6.5563,-6.62387 h 14.1771 c 0,-6.38728 -2.146,-11.20309 -8.753,-11.20309 z m -5.4241,8.48261 c 0.2873,-2.55157 1.7574,-5.52554 5.3397,-5.52554 3.1598,0 4.9341,2.50086 4.9341,5.52554 h -10.2738" id="path24"></path>
      <path style="fill:#0059a8;fill-opacity:1;fill-rule:nonzero;stroke:none;stroke-width:4.32579" d="m 1086.2623,208.14467 v -10.88208 h 5.2552 v -2.9402 h -5.2552 v -5.76207 l -3.6499,1.14905 v 4.61302 h -4.4778 v 2.9402 h 4.4778 v 11.62554 c 0,3.95403 2.3319,5.74522 6.117,5.74522 1.1659,0 2.2811,-0.30411 3.0922,-0.54074 v -3.10916 c -0.5238,0.33786 -1.3518,0.69279 -2.484,0.69279 -1.6559,0 -3.0753,-1.25041 -3.0753,-3.53157" id="path26"></path>
      <path style="fill:#0059a8;fill-opacity:1;fill-rule:nonzero;stroke:none;stroke-width:4.32579" d="m 1098.6651,197.39776 h -0.084 v -3.07537 h -3.4302 v 19.8378 h 3.6499 v -9.02334 c 0,-4.98477 2.146,-8.09393 5.4241,-8.09393 0.6252,0 1.3518,0.0675 2.0108,0.35472 v -3.27813 c -0.7773,-0.15227 -1.318,-0.27036 -2.3994,-0.27036 -2.0953,0 -4.2244,1.47008 -5.1707,3.54849" id="path28"></path>
      <path style="fill:#0059a8;fill-opacity:1;fill-rule:nonzero;stroke:none;stroke-width:4.32579" d="m 1118.1142,193.84928 c -6.0662,0 -10.1047,4.35957 -10.1047,10.39201 0,5.67759 4.1061,10.39206 10.1047,10.39206 5.9649,0 10.088,-4.71447 10.088,-10.39206 0,-6.03244 -4.0386,-10.39201 -10.088,-10.39201 z m 0,17.82696 c -4.3088,0 -6.2351,-3.88647 -6.2351,-7.43495 0,-3.78506 2.298,-7.43494 6.2351,-7.43494 3.9034,0 6.1846,3.64988 6.1846,7.43494 0,3.54848 -1.8926,7.43495 -6.1846,7.43495" id="path30"></path>
      <path style="fill:#0059a8;fill-opacity:1;fill-rule:nonzero;stroke:none;stroke-width:4.32579" d="m 1142.4468,193.84928 c -3.4978,0 -5.7621,1.77423 -6.7252,3.26121 h -0.084 v -2.7881 h -3.4978 v 28.03313 h 3.6667 v -10.89895 h 0.067 c 1.1322,1.80804 3.1261,3.17678 6.6239,3.17678 5.9986,0 8.5164,-5.30588 8.5164,-10.74691 0,-5.33961 -2.805,-10.03716 -8.5671,-10.03716 z m -0.8111,17.82696 c -4.123,0 -5.8296,-4.08921 -5.8296,-7.40117 0,-3.68366 1.9094,-7.46872 5.8634,-7.46872 3.971,0 5.5255,3.78506 5.458,7.35045 0.067,3.12608 -1.5715,7.51944 -5.4918,7.51944" id="path32"></path>
      <path style="fill:#0059a8;fill-opacity:1;fill-rule:nonzero;stroke:none;stroke-width:4.32579" d="m 1163.7547,193.84928 c -6.0831,0 -10.1217,4.35957 -10.1217,10.39201 0,5.67759 4.1231,10.39206 10.1217,10.39206 5.948,0 10.0709,-4.71447 10.0709,-10.39206 0,-6.03244 -4.0384,-10.39201 -10.0709,-10.39201 z m 0,17.82696 c -4.3258,0 -6.2183,-3.88647 -6.2183,-7.43495 0,-3.78506 2.2812,-7.43494 6.2183,-7.43494 3.9033,0 6.1845,3.64988 6.1845,7.43494 0,3.54848 -1.9094,7.43495 -6.1845,7.43495" id="path34"></path>
      <path style="fill:#0059a8;fill-opacity:1;fill-rule:nonzero;stroke:none;stroke-width:4.32579" d="m 1178.2359,214.16019 h 3.6499 v -29.19906 h -3.6499 v 29.19906" id="path36"></path>
      <path style="fill:#0059a8;fill-opacity:1;fill-rule:nonzero;stroke:none;stroke-width:4.32579" d="m 1188.0872,214.16019 h 3.6499 v -19.8378 h -3.6499 v 19.8378" id="path38"></path>
      <path style="fill:#0059a8;fill-opacity:1;fill-rule:nonzero;stroke:none;stroke-width:4.32579" d="m 1187.8507,189.87833 h 4.1399 v -4.12302 h -4.1399 v 4.12302" id="path40"></path>
      <path style="fill:#0059a8;fill-opacity:1;fill-rule:nonzero;stroke:none;stroke-width:4.32579" d="m 1202.7712,208.14467 v -10.88208 h 5.2552 v -2.9402 h -5.2552 v -5.76207 l -3.6668,1.14905 v 4.61302 h -4.4778 v 2.9402 h 4.4778 v 11.62554 c 0,3.95403 2.3319,5.74522 6.117,5.74522 1.166,0 2.2981,-0.30411 3.1092,-0.54074 v -3.10916 c -0.5408,0.33786 -1.3687,0.69279 -2.5008,0.69279 -1.673,0 -3.0586,-1.25041 -3.0586,-3.53157" id="path42"></path>
      <path style="fill:#0059a8;fill-opacity:1;fill-rule:nonzero;stroke:none;stroke-width:4.32579" d="m 1227.1038,202.06152 c 0,-5.40723 -2.298,-8.21224 -7.9926,-8.21224 -2.5177,0 -4.6976,0.77731 -6.5393,1.87561 l 0.186,3.10916 c 1.4869,-1.25041 3.7175,-2.0277 5.7789,-2.0277 3.6499,0 4.9003,1.74048 4.9003,5.18756 -1.4532,-0.0844 -2.4501,-0.0844 -3.8864,-0.0844 -3.7851,0 -9.2261,1.55456 -9.2261,6.53937 0,4.32579 2.9909,6.18453 7.266,6.18453 3.3626,0 5.2889,-1.82496 6.1506,-3.02466 h 0.084 v 2.55152 h 3.4303 c -0.084,-0.57451 -0.1519,-1.62218 -0.1519,-3.88647 z m -3.6668,4.39336 c 0,2.97397 -1.9095,5.22136 -5.5255,5.22136 -1.6728,0 -3.7005,-1.13215 -3.7005,-3.22743 0,-3.49784 4.9002,-3.81885 6.8941,-3.81885 0.7773,0 1.5547,0.0844 2.3319,0.0844 v 1.74043" id="path44"></path>
      <path style="fill:#0059a8;fill-opacity:1;fill-rule:nonzero;stroke:none;stroke-width:4.32579" d="m 1242.4468,193.84928 c -2.7712,0 -5.4241,1.36868 -6.5225,3.61609 h -0.068 v -3.14298 h -3.5485 v 19.8378 h 3.6668 v -9.17539 c 0,-4.83272 1.8757,-8.17845 6.0325,-8.17845 3.1936,0.20288 4.2075,2.45016 4.2075,7.08009 v 10.27375 h 3.6668 v -11.79452 c 0,-5.32275 -2.2982,-8.51639 -7.435,-8.51639" id="path46"></path>
      <path style="fill:#0059a8;fill-opacity:1;fill-rule:nonzero;stroke:none;stroke-width:4.32579" d="m 1283.0855,186.98884 h -20.784 v 3.43023 h 8.4488 v 23.74112 h 3.9033 v -23.74112 h 8.4319 v -3.43023" id="path48"></path>
      <path style="fill:#0059a8;fill-opacity:1;fill-rule:nonzero;stroke:none;stroke-width:4.32579" d="m 1286.2791,197.39776 h -0.068 v -3.07537 h -3.4472 v 19.8378 h 3.6837 v -9.02334 c 0,-4.98477 2.1291,-8.09393 5.4072,-8.09393 0.6083,0 1.3519,0.0675 2.0278,0.35472 v -3.27813 c -0.7942,-0.15227 -1.335,-0.27036 -2.4164,-0.27036 -2.1122,0 -4.2075,1.47008 -5.1876,3.54849" id="path50"></path>
      <path style="fill:#0059a8;fill-opacity:1;fill-rule:nonzero;stroke:none;stroke-width:4.32579" d="m 1312.4198,202.06152 c 0,-5.40723 -2.315,-8.21224 -7.9926,-8.21224 -2.5346,0 -4.7145,0.77731 -6.5393,1.87561 l 0.186,3.10916 c 1.4869,-1.25041 3.7005,-2.0277 5.762,-2.0277 3.6668,0 4.9172,1.74048 4.9172,5.18756 -1.4363,-0.0844 -2.4501,-0.0844 -3.8864,-0.0844 -3.7851,0 -9.2431,1.55456 -9.2431,6.53937 0,4.32579 2.991,6.18453 7.283,6.18453 3.3457,0 5.3058,-1.82496 6.1338,-3.02466 h 0.1014 v 2.55152 h 3.4301 c -0.084,-0.57451 -0.1523,-1.62218 -0.1523,-3.88647 z m -3.6668,4.39336 c 0,2.97397 -1.9095,5.22136 -5.5255,5.22136 -1.6897,0 -3.7175,-1.13215 -3.7175,-3.22743 0,-3.49784 4.9172,-3.81885 6.8943,-3.81885 0.7772,0 1.5545,0.0844 2.3487,0.0844 v 1.74043" id="path52"></path>
      <path style="fill:#0059a8;fill-opacity:1;fill-rule:nonzero;stroke:none;stroke-width:4.32579" d="m 1327.7459,193.84928 c -2.7543,0 -5.4241,1.36868 -6.5056,3.61609 h -0.068 v -3.14298 h -3.5484 v 19.8378 h 3.6499 v -9.17539 c 0,-4.83272 1.8925,-8.17845 6.0493,-8.17845 3.1936,0.20288 4.2075,2.45016 4.2075,7.08009 v 10.27375 h 3.6498 v -11.79452 c 0,-5.32275 -2.2981,-8.51639 -7.4349,-8.51639" id="path54"></path>
      <path style="fill:#0059a8;fill-opacity:1;fill-rule:nonzero;stroke:none;stroke-width:4.32579" d="m 1342.5312,199.22273 c 0,-1.63909 1.656,-2.41638 3.5148,-2.41638 0.8617,0 3.0416,0.50693 3.8527,1.01388 l 0.3209,-3.19364 c -1.4363,-0.42264 -2.8556,-0.77731 -4.5623,-0.77731 -3.9202,0 -7.0125,1.97701 -7.0125,6.11692 0,5.55933 8.6177,5.25513 8.6177,8.87124 0,2.14601 -2.0784,2.8388 -3.7512,2.8388 -1.0477,0 -3.1092,-0.45625 -4.5286,-1.40251 l -0.2198,3.27816 c 1.673,0.89558 3.5823,1.08146 5.458,1.08146 3.5484,0 6.928,-1.94324 6.928,-6.18454 0,-6.3535 -8.6178,-5.17066 -8.6178,-9.22608" id="path56"></path>
      <path style="fill:#0059a8;fill-opacity:1;fill-rule:nonzero;stroke:none;stroke-width:4.32579" d="m 1355.0861,214.16019 h 3.6668 v -19.8378 h -3.6668 v 19.8378" id="path58"></path>
      <path style="fill:#0059a8;fill-opacity:1;fill-rule:nonzero;stroke:none;stroke-width:4.32579" d="m 1354.8496,189.87833 h 4.1231 v -4.12302 h -4.1231 v 4.12302" id="path60"></path>
      <path style="fill:#0059a8;fill-opacity:1;fill-rule:nonzero;stroke:none;stroke-width:4.32579" d="m 1369.7533,208.14467 v -10.88208 h 5.2551 v -2.9402 h -5.2551 v -5.76207 l -3.6498,1.14905 v 4.61302 h -4.4779 v 2.9402 h 4.4779 v 11.62554 c 0,3.95403 2.3318,5.74522 6.1169,5.74522 1.1659,0 2.2812,-0.30411 3.1091,-0.54074 v -3.10916 c -0.5407,0.33786 -1.3687,0.69279 -2.5008,0.69279 -1.6728,0 -3.0754,-1.25041 -3.0754,-3.53157" id="path62"></path>
      <path style="fill:#0059a8;fill-opacity:1;fill-rule:nonzero;stroke:none;stroke-width:4.32579" d="m 1401.8081,211.21999 c -5.6608,0 -10.24,-4.25818 -10.24,-10.62858 0,-6.11693 4.1568,-10.62858 10.4427,-10.62858 1.9601,0 3.8865,0.49001 5.5931,1.50389 l 0.321,-3.76819 c -1.9601,-0.86178 -4.0217,-1.16593 -6.1169,-1.16593 -8.3136,0 -14.3799,5.55933 -14.3799,13.92363 0,8.66848 5.7283,14.17712 14.346,14.17712 1.5884,0 4.1231,-0.1012 6.1846,-0.96319 l -0.2367,-3.78507 c -1.3687,0.828 -3.9709,1.3349 -5.914,1.3349" id="path64"></path>
      <path style="fill:#0059a8;fill-opacity:1;fill-rule:nonzero;stroke:none;stroke-width:4.32579" d="m 1420.1081,193.84928 c -6.0832,0 -10.1385,4.35957 -10.1385,10.39201 0,5.67759 4.1399,10.39206 10.1385,10.39206 5.948,0 10.071,-4.71447 10.071,-10.39206 0,-6.03244 -4.0384,-10.39201 -10.071,-10.39201 z m 0,17.82696 c -4.3257,0 -6.2352,-3.88647 -6.2352,-7.43495 0,-3.78506 2.2982,-7.43494 6.2352,-7.43494 3.8864,0 6.1846,3.64988 6.1846,7.43494 0,3.54848 -1.9095,7.43495 -6.1846,7.43495" id="path66"></path>
      <path style="fill:#0059a8;fill-opacity:1;fill-rule:nonzero;stroke:none;stroke-width:4.32579" d="m 1437.6141,197.39776 h -0.084 v -3.07537 h -3.4133 v 19.8378 h 3.6499 v -9.02334 c 0,-4.98477 2.146,-8.09393 5.4241,-8.09393 0.6252,0 1.3687,0.0675 2.0277,0.35472 v -3.27813 c -0.7941,-0.15227 -1.318,-0.27036 -2.4164,-0.27036 -2.1121,0 -4.1905,1.47008 -5.1876,3.54849" id="path68"></path>
      <path style="fill:#0059a8;fill-opacity:1;fill-rule:nonzero;stroke:none;stroke-width:4.32579" d="m 1458.6009,193.84928 c -3.4978,0 -5.7621,1.77423 -6.7253,3.26121 h -0.084 v -2.7881 h -3.4979 v 28.03313 h 3.6499 v -10.89895 h 0.1013 c 1.1154,1.80804 3.1092,3.17678 6.607,3.17678 5.9986,0 8.5164,-5.30588 8.5164,-10.74691 0,-5.33961 -2.788,-10.03716 -8.5671,-10.03716 z m -0.8112,17.82696 c -4.1229,0 -5.8465,-4.08921 -5.8465,-7.40117 0,-3.68366 1.9264,-7.46872 5.8973,-7.46872 3.971,0 5.5255,3.78506 5.441,7.35045 0.084,3.12608 -1.5546,7.51944 -5.4918,7.51944" id="path70"></path>
      <path style="fill:#0059a8;fill-opacity:1;fill-rule:nonzero;stroke:none;stroke-width:4.32579" d="m 1479.9088,193.84928 c -6.0832,0 -10.1217,4.35957 -10.1217,10.39201 0,5.67759 4.123,10.39206 10.1217,10.39206 5.9479,0 10.0709,-4.71447 10.0709,-10.39206 0,-6.03244 -4.0385,-10.39201 -10.0709,-10.39201 z m 0,17.82696 c -4.3259,0 -6.2352,-3.88647 -6.2352,-7.43495 0,-3.78506 2.298,-7.43494 6.2352,-7.43494 3.8864,0 6.1845,3.64988 6.1845,7.43494 0,3.54848 -1.8925,7.43495 -6.1845,7.43495" id="path72"></path>
      <path style="fill:#0059a8;fill-opacity:1;fill-rule:nonzero;stroke:none;stroke-width:4.32579" d="m 1497.4316,197.39776 h -0.084 v -3.07537 h -3.4133 v 19.8378 h 3.6498 v -9.02334 c 0,-4.98477 2.146,-8.09393 5.4242,-8.09393 0.6084,0 1.3518,0.0675 2.0108,0.35472 v -3.27813 c -0.7772,-0.15227 -1.318,-0.27036 -2.4163,-0.27036 -2.1123,0 -4.2076,1.47008 -5.1707,3.54849" id="path74"></path>
      <path style="fill:#0059a8;fill-opacity:1;fill-rule:nonzero;stroke:none;stroke-width:4.32579" d="m 1523.5553,202.06152 c 0,-5.40723 -2.2981,-8.21224 -7.9757,-8.21224 -2.5347,0 -4.7144,0.77731 -6.5563,1.87561 l 0.2028,3.10916 c 1.4702,-1.25041 3.6838,-2.0277 5.7622,-2.0277 3.6668,0 4.9002,1.74048 4.9002,5.18756 -1.4362,-0.0844 -2.4501,-0.0844 -3.8864,-0.0844 -3.785,0 -9.2261,1.55456 -9.2261,6.53937 0,4.32579 2.9909,6.18453 7.2829,6.18453 3.3288,0 5.289,-1.82496 6.1507,-3.02466 h 0.068 v 2.55152 h 3.4303 c -0.068,-0.57451 -0.1519,-1.62218 -0.1519,-3.88647 z m -3.6668,4.39336 c 0,2.97397 -1.9094,5.22136 -5.5256,5.22136 -1.6728,0 -3.7005,-1.13215 -3.7005,-3.22743 0,-3.49784 4.9172,-3.81885 6.8943,-3.81885 0.7772,0 1.5545,0.0844 2.3318,0.0844 v 1.74043" id="path76"></path>
      <path style="fill:#0059a8;fill-opacity:1;fill-rule:nonzero;stroke:none;stroke-width:4.32579" d="m 1534.0656,208.14467 v -10.88208 h 5.2552 v -2.9402 h -5.2552 v -5.76207 l -3.6499,1.14905 v 4.61302 h -4.4778 v 2.9402 h 4.4778 v 11.62554 c 0,3.95403 2.315,5.74522 6.1,5.74522 1.1828,0 2.298,-0.30411 3.126,-0.54074 v -3.10916 c -0.5576,0.33786 -1.3686,0.69279 -2.5008,0.69279 -1.6729,0 -3.0753,-1.25041 -3.0753,-3.53157" id="path78"></path>
      <path style="fill:#0059a8;fill-opacity:1;fill-rule:nonzero;stroke:none;stroke-width:4.32579" d="m 1543.1733,189.87833 h 4.1231 v -4.12302 h -4.1231 v 4.12302" id="path80"></path>
      <path style="fill:#0059a8;fill-opacity:1;fill-rule:nonzero;stroke:none;stroke-width:4.32579" d="m 1543.41,214.16019 h 3.6668 v -19.8378 h -3.6668 v 19.8378" id="path82"></path>
      <path style="fill:#0059a8;fill-opacity:1;fill-rule:nonzero;stroke:none;stroke-width:4.32579" d="m 1561.5917,193.84928 c -6.083,0 -10.1216,4.35957 -10.1216,10.39201 0,5.67759 4.1399,10.39206 10.1216,10.39206 5.965,0 10.1048,-4.71447 10.1048,-10.39206 0,-6.03244 -4.0722,-10.39201 -10.1048,-10.39201 z m 0,17.82696 c -4.3257,0 -6.2352,-3.88647 -6.2352,-7.43495 0,-3.78506 2.3151,-7.43494 6.2352,-7.43494 3.9034,0 6.2015,3.64988 6.2015,7.43494 0,3.54848 -1.9095,7.43495 -6.2015,7.43495" id="path84"></path>
      <path style="fill:#0059a8;fill-opacity:1;fill-rule:nonzero;stroke:none;stroke-width:4.32579" d="m 1585.7216,193.84928 c -2.7375,0 -5.4073,1.36868 -6.5056,3.61609 h -0.068 v -3.14298 h -3.5484 v 19.8378 h 3.6667 v -9.17539 c 0,-4.83272 1.8588,-8.17845 6.0494,-8.17845 3.1936,0.20288 4.1906,2.45016 4.1906,7.08009 v 10.27375 h 3.6668 v -11.79452 c 0,-5.32275 -2.298,-8.51639 -7.4519,-8.51639" id="path86"></path>
      <path style="fill:#0059a8;fill-opacity:1;fill-rule:nonzero;stroke:none;stroke-width:4.32579" d="m 1217.32,141.55117 c -18.638,-6.928 -22.8454,-19.63499 -22.8454,-33.18686 V 92.396069 h -14.1434 v 16.508971 c -0.1186,13.34911 -4.4441,25.80261 -22.8455,32.64613 l 6.6069,8.07707 c 7.1308,-1.97701 16.7962,-7.73909 23.3188,-16.37374 6.5054,8.63465 16.1878,14.39673 23.3017,16.37374 l 6.6069,-8.07707" id="path88"></path>
      <path style="fill:#0059a8;fill-opacity:1;fill-rule:nonzero;stroke:none;stroke-width:4.32579" d="m 1033.9135,174.23115 v -33.77828 h 34.9781 v -10.39205 h -13.704 c 1.6053,-4.37644 2.8219,-11.62556 2.9571,-17.30315 h 0.035 V 92.362282 h -62.30144 v 10.341348 h 48.15814 v 7.70531 c -0.017,7.0294 -0.5069,14.34604 -1.977,19.65188 h -57.31666 v 10.39205 h 35.02876 v 33.77828 h 14.1433" id="path90"></path>
      <path style="fill:#0059a8;fill-opacity:1;fill-rule:nonzero;stroke:none;stroke-width:4.32579" d="m 1425.5492,157.04632 h -34.1669 v -18.68879 h 23.7917 v -10.37509 h -49.1213 V 102.7712 h 49.1213 V 92.396069 h -65.4781 v 2.416373 c 0,0 2.2136,1.30112 2.2136,6.759038 v 30.92259 c 0,3.24433 2.636,5.86346 5.8634,5.86346 h 19.483 v 18.68879 h -35.823 v 10.392 h 84.1163 v -10.392" id="path92"></path>
      <path style="fill:#0059a8;fill-opacity:1;fill-rule:nonzero;stroke:none;stroke-width:4.32579" d="m 1156.8774,157.04632 h -34.1839 v -18.68879 h 23.7919 V 127.98244 H 1097.364 V 102.7712 h 49.1214 V 92.396069 h -65.4952 v 2.416373 c 0,0 2.2305,1.30112 2.2305,6.759038 v 30.92259 c 0,3.24433 2.636,5.86346 5.8804,5.86346 h 19.4491 v 18.68879 h -35.806 v 10.392 h 84.1332 v -10.392" id="path94"></path>
      <path style="fill:#0059a8;fill-opacity:1;fill-rule:nonzero;stroke:none;stroke-width:4.32579" d="m 1278.067,118.43526 c 5.6437,6.57321 13.9574,10.91586 21.7302,12.9098 l 6.5732,-8.16155 c -12.4197,-3.73437 -18.5197,-9.0402 -20.4629,-18.62117 h 16.154 V 94.187242 h -16.9144 v -7.350466 h -14.1433 v 7.350466 h -17.185 v 10.375098 h 16.4246 c -1.9602,9.58097 -8.0771,14.8868 -20.4799,18.62117 l 6.5732,8.16155 c 7.7728,-1.99394 16.0864,-6.33659 21.7303,-12.9098" id="path96"></path>
      <path style="fill:#0059a8;fill-opacity:1;fill-rule:nonzero;stroke:none;stroke-width:4.32579" d="m 1471.4768,137.78303 c -13.4167,0 -24.2649,8.66849 -24.2649,19.34777 0,10.67928 10.8482,19.34772 24.2649,19.34772 13.3829,0 24.2651,-8.66844 24.2651,-19.34772 0,-10.67928 -10.8822,-19.34777 -24.2651,-19.34777 z m 0,28.3204 c -5.5255,0 -9.9864,-4.02164 -9.9864,-8.97263 0,-4.96791 4.4609,-8.98955 9.9864,-8.98955 5.5087,0 9.9528,4.02164 9.9528,8.98955 0,4.95099 -4.4441,8.97263 -9.9528,8.97263" id="path98"></path>
      <path style="fill:#0059a8;fill-opacity:1;fill-rule:nonzero;stroke:none;stroke-width:4.32579" d="m 1513.5181,125.32948 h -14.8361 c 1.4532,-3.98781 3.3795,-9.68232 3.4133,-16.67789 V 92.396069 h -61.8284 v 10.392041 h 47.702 v 5.76208 c -0.035,7.04628 -1.2334,12.47043 -2.3825,16.77929 h -11.6087 v -15.10642 h -16.3569 v 2.41634 c 0,0 2.2305,1.3349 2.2305,6.75904 v 5.93104 h -30.5002 v 10.39205 h 84.167 v -10.39205" id="path100"></path>
      <path style="fill:#0059a8;fill-opacity:1;fill-rule:nonzero;stroke:none;stroke-width:4.32579" d="M 1593.0551,114.41367 V 88.695482 h -16.3738 v 2.399467 c 0,0 2.2304,1.30112 2.2304,6.75904 v 76.377161 h 14.1434 v -49.42548 h 12.2169 v -10.392 h -12.2169" id="path102"></path>
      <path style="fill:#0059a8;fill-opacity:1;fill-rule:nonzero;stroke:none;stroke-width:4.32579" d="M 1550.7604,108.36431 V 92.396069 h -14.1095 v 16.458271 c -0.1186,13.3829 -4.4609,25.83645 -22.8625,32.69683 l 6.6071,8.07707 c 7.1138,-1.97701 16.813,-7.73909 23.3186,-16.37374 6.5056,8.63465 16.1879,14.39673 23.3018,16.37374 l 6.607,-8.07707 c -18.6381,-6.928 -22.8625,-19.63499 -22.8625,-33.18686" id="path104"></path>
      <path style="fill:#0059a8;fill-opacity:1;fill-rule:nonzero;stroke:none;stroke-width:4.32579" d="m 943.03823,174.23115 h 13.28151 v -49.74653 h 5.61003 v 49.74653 h 13.31528 V 88.695482 h -15.52888 v 2.399467 c 0,0 2.2136,1.30112 2.2136,6.75904 v 16.255491 h -5.61003 V 88.695482 h -15.47819 v 2.399467 c 0,0 1.99388,1.216627 2.19668,6.03244 v 39.219341 c -6.75904,2.09528 -11.13552,2.7374 -19.53365,2.7374 h -8.68534 V 104.951 h 20.05745 V 94.575869 h -36.44812 v 2.416346 c 0,0 2.24737,1.301107 2.24737,6.759045 v 39.86146 c 0,3.22743 2.61914,5.86347 5.86348,5.86347 h 16.99899 v -0.0173 c 8.38121,0 12.74078,-0.6759 19.49982,-2.7374 v 27.50927" id="path106"></path>
      <path style="fill:#0059a8;fill-opacity:1;fill-rule:nonzero;stroke:none;stroke-width:4.32579" d="m 1314.0588,97.853989 v 9.479571 h -13.8898 v 10.37515 h 13.8898 v 14.515 h 14.1264 V 88.695482 h -16.34 v 2.399467 c 0,0 2.2136,1.318027 2.2136,6.75904" id="path108"></path>
      <path style="fill:#0059a8;fill-opacity:1;fill-rule:nonzero;stroke:none;stroke-width:4.32579" d="m 1328.1852,159.54713 v -24.78878 h -63.8392 v 10.08786 h 49.7128 v 4.61307 h -49.7128 v 2.39947 c 0,0 2.2306,1.35181 2.2306,6.79282 v 9.68232 c 0,3.26126 2.636,5.89726 5.8804,5.89726 h 55.7282 v -10.08786 h -47.4653 v -4.59616 h 47.4653" id="path110"></path>
      <path style="fill:#0059a8;fill-opacity:1;fill-rule:nonzero;stroke:none;stroke-width:4.32579" d="m 1223.6228,97.853989 v 76.377161 h 14.1434 V 88.695482 h -16.3738 v 2.399467 c 0,0 2.2304,1.30112 2.2304,6.75904" id="path112"></path>
    </g>
  </g>
</svg>
